<?xml version="1.0" encoding="UTF-8" standalone="no"?>
<!DOCTYPE svg PUBLIC "-//W3C//DTD SVG 1.1//EN"
 "http://www.w3.org/Graphics/SVG/1.1/DTD/svg11.dtd">
<!-- Generated by graphviz version 2.47.0 (20210316.0004)
 -->
<!-- Title: dependencies Pages: 1 -->
<svg width="7276pt" height="284pt"
 viewBox="0.00 0.00 7276.00 284.00" xmlns="http://www.w3.org/2000/svg" xmlns:xlink="http://www.w3.org/1999/xlink">
<g id="graph0" class="graph" transform="scale(1 1) rotate(0) translate(4 280)">
<title>dependencies</title>
<polygon fill="white" stroke="transparent" points="-4,4 -4,-280 7272,-280 7272,4 -4,4"/>
<text text-anchor="start" x="3613.01" y="-42.4" font-family="Times-12" font-weight="bold" font-size="14.00">Legend</text>
<polygon fill="#ffffb3" stroke="transparent" points="3400,-10 3400,-30 3420,-30 3420,-10 3400,-10"/>
<text text-anchor="start" x="3423.63" y="-15.4" font-family="Times-12" font-size="14.00"> &#160;Declarations</text>
<polygon fill="#8dd3c7" stroke="transparent" points="3513,-10 3513,-30 3533,-30 3533,-10 3513,-10"/>
<text text-anchor="start" x="3536.73" y="-15.4" font-family="Times-12" font-size="14.00"> &#160;Module</text>
<polygon fill="#80b1d3" stroke="transparent" points="3599,-10 3599,-30 3619,-30 3619,-10 3599,-10"/>
<text text-anchor="start" x="3622.78" y="-15.4" font-family="Times-12" font-size="14.00"> &#160;Bootstrap</text>
<polygon fill="#fdb462" stroke="transparent" points="3696,-10 3696,-30 3716,-30 3716,-10 3696,-10"/>
<text text-anchor="start" x="3719.67" y="-15.4" font-family="Times-12" font-size="14.00"> &#160;Providers</text>
<polygon fill="#fb8072" stroke="transparent" points="3792,-10 3792,-30 3812,-30 3812,-10 3792,-10"/>
<text text-anchor="start" x="3815.73" y="-15.4" font-family="Times-12" font-size="14.00"> &#160;Exports</text>
<g id="clust1" class="cluster">
<title>cluster_AppModule</title>
<polygon fill="none" stroke="black" stroke-dasharray="1,5" points="8,-70 8,-268 7260,-268 7260,-70 8,-70"/>
</g>
<g id="clust2" class="cluster">
<title>cluster_AppModule_declarations</title>
<polygon fill="none" stroke="black" points="795,-78 795,-130 7252,-130 7252,-78 795,-78"/>
</g>
<g id="clust46" class="cluster">
<title>cluster_AppModule_providers</title>
<polygon fill="none" stroke="black" points="168,-78 168,-130 787,-130 787,-78 168,-78"/>
</g>
<g id="clust45" class="cluster">
<title>cluster_AppModule_bootstrap</title>
<polygon fill="none" stroke="black" points="3821,-208 3821,-260 3945,-260 3945,-208 3821,-208"/>
</g>
<g id="clust43" class="cluster">
<title>cluster_AppModule_imports</title>
<polygon fill="none" stroke="black" points="16,-78 16,-130 160,-130 160,-78 16,-78"/>
</g>
<!-- AddEditAddressComponent -->
<g id="node1" class="node">
<title>AddEditAddressComponent</title>
<polygon fill="#ffffb3" stroke="black" points="7244.14,-122 7069.86,-122 7069.86,-86 7244.14,-86 7244.14,-122"/>
<text text-anchor="middle" x="7157" y="-99.8" font-family="Times,serif" font-size="14.00">AddEditAddressComponent</text>
</g>
<!-- AppModule -->
<g id="node41" class="node">
<title>AppModule</title>
<polygon fill="#8dd3c7" stroke="black" points="3924.66,-187 3921.66,-191 3900.66,-191 3897.66,-187 3841.34,-187 3841.34,-151 3924.66,-151 3924.66,-187"/>
<text text-anchor="middle" x="3883" y="-164.8" font-family="Times,serif" font-size="14.00">AppModule</text>
</g>
<!-- AddEditAddressComponent&#45;&gt;AppModule -->
<g id="edge1" class="edge">
<title>AddEditAddressComponent&#45;&gt;AppModule</title>
<path fill="none" stroke="black" d="M7157,-122.2C7157,-146.36 7157,-186 7157,-186 7157,-186 3934.69,-186 3934.69,-186"/>
<polygon fill="black" stroke="black" points="3934.69,-182.5 3924.69,-186 3934.69,-189.5 3934.69,-182.5"/>
</g>
<!-- AddressComponent -->
<g id="node2" class="node">
<title>AddressComponent</title>
<polygon fill="#ffffb3" stroke="black" points="7051.7,-122 6924.3,-122 6924.3,-86 7051.7,-86 7051.7,-122"/>
<text text-anchor="middle" x="6988" y="-99.8" font-family="Times,serif" font-size="14.00">AddressComponent</text>
</g>
<!-- AddressComponent&#45;&gt;AppModule -->
<g id="edge2" class="edge">
<title>AddressComponent&#45;&gt;AppModule</title>
<path fill="none" stroke="black" d="M6988,-122.15C6988,-145.76 6988,-184 6988,-184 6988,-184 3934.84,-184 3934.84,-184"/>
<polygon fill="black" stroke="black" points="3934.84,-180.5 3924.84,-184 3934.84,-187.5 3934.84,-180.5"/>
</g>
<!-- AddsBannerComponent -->
<g id="node3" class="node">
<title>AddsBannerComponent</title>
<polygon fill="#ffffb3" stroke="black" points="6906.81,-122 6755.19,-122 6755.19,-86 6906.81,-86 6906.81,-122"/>
<text text-anchor="middle" x="6831" y="-99.8" font-family="Times,serif" font-size="14.00">AddsBannerComponent</text>
</g>
<!-- AddsBannerComponent&#45;&gt;AppModule -->
<g id="edge3" class="edge">
<title>AddsBannerComponent&#45;&gt;AppModule</title>
<path fill="none" stroke="black" d="M6831,-122.32C6831,-145.66 6831,-183 6831,-183 6831,-183 3934.67,-183 3934.67,-183"/>
<polygon fill="black" stroke="black" points="3934.67,-179.5 3924.67,-183 3934.67,-186.5 3934.67,-179.5"/>
</g>
<!-- AddsComponent -->
<g id="node4" class="node">
<title>AddsComponent</title>
<polygon fill="#ffffb3" stroke="black" points="6737.38,-122 6626.62,-122 6626.62,-86 6737.38,-86 6737.38,-122"/>
<text text-anchor="middle" x="6682" y="-99.8" font-family="Times,serif" font-size="14.00">AddsComponent</text>
</g>
<!-- AddsComponent&#45;&gt;AppModule -->
<g id="edge4" class="edge">
<title>AddsComponent&#45;&gt;AppModule</title>
<path fill="none" stroke="black" d="M6682,-122.25C6682,-145.02 6682,-181 6682,-181 6682,-181 3934.74,-181 3934.74,-181"/>
<polygon fill="black" stroke="black" points="3934.74,-177.5 3924.74,-181 3934.74,-184.5 3934.74,-177.5"/>
</g>
<!-- AppComponent -->
<g id="node5" class="node">
<title>AppComponent</title>
<polygon fill="#ffffb3" stroke="black" points="6608.94,-122 6503.06,-122 6503.06,-86 6608.94,-86 6608.94,-122"/>
<text text-anchor="middle" x="6556" y="-99.8" font-family="Times,serif" font-size="14.00">AppComponent</text>
</g>
<!-- AppComponent&#45;&gt;AppModule -->
<g id="edge5" class="edge">
<title>AppComponent&#45;&gt;AppModule</title>
<path fill="none" stroke="black" d="M6556,-122.16C6556,-144.35 6556,-179 6556,-179 6556,-179 3934.72,-179 3934.72,-179"/>
<polygon fill="black" stroke="black" points="3934.72,-175.5 3924.72,-179 3934.72,-182.5 3934.72,-175.5"/>
</g>
<!-- AuthRemainderModalComponent -->
<g id="node6" class="node">
<title>AuthRemainderModalComponent</title>
<polygon fill="#ffffb3" stroke="black" points="6485.8,-122 6278.2,-122 6278.2,-86 6485.8,-86 6485.8,-122"/>
<text text-anchor="middle" x="6382" y="-99.8" font-family="Times,serif" font-size="14.00">AuthRemainderModalComponent</text>
</g>
<!-- AuthRemainderModalComponent&#45;&gt;AppModule -->
<g id="edge6" class="edge">
<title>AuthRemainderModalComponent&#45;&gt;AppModule</title>
<path fill="none" stroke="black" d="M6382,-122.29C6382,-144.21 6382,-178 6382,-178 6382,-178 3934.81,-178 3934.81,-178"/>
<polygon fill="black" stroke="black" points="3934.81,-174.5 3924.81,-178 3934.81,-181.5 3934.81,-174.5"/>
</g>
<!-- BuyingRecordComponent -->
<g id="node7" class="node">
<title>BuyingRecordComponent</title>
<polygon fill="#ffffb3" stroke="black" points="6260.49,-122 6097.51,-122 6097.51,-86 6260.49,-86 6260.49,-122"/>
<text text-anchor="middle" x="6179" y="-99.8" font-family="Times,serif" font-size="14.00">BuyingRecordComponent</text>
</g>
<!-- BuyingRecordComponent&#45;&gt;AppModule -->
<g id="edge7" class="edge">
<title>BuyingRecordComponent&#45;&gt;AppModule</title>
<path fill="none" stroke="black" d="M6179,-122.17C6179,-143.5 6179,-176 6179,-176 6179,-176 3934.81,-176 3934.81,-176"/>
<polygon fill="black" stroke="black" points="3934.81,-172.5 3924.81,-176 3934.81,-179.5 3934.81,-172.5"/>
</g>
<!-- ChatSupportComponent -->
<g id="node8" class="node">
<title>ChatSupportComponent</title>
<polygon fill="#ffffb3" stroke="black" points="6079.11,-122 5926.89,-122 5926.89,-86 6079.11,-86 6079.11,-122"/>
<text text-anchor="middle" x="6003" y="-99.8" font-family="Times,serif" font-size="14.00">ChatSupportComponent</text>
</g>
<!-- ChatSupportComponent&#45;&gt;AppModule -->
<g id="edge8" class="edge">
<title>ChatSupportComponent&#45;&gt;AppModule</title>
<path fill="none" stroke="black" d="M6003,-122.03C6003,-142.77 6003,-174 6003,-174 6003,-174 3934.87,-174 3934.87,-174"/>
<polygon fill="black" stroke="black" points="3934.87,-170.5 3924.87,-174 3934.87,-177.5 3934.87,-170.5"/>
</g>
<!-- ChatsComponent -->
<g id="node9" class="node">
<title>ChatsComponent</title>
<polygon fill="#ffffb3" stroke="black" points="5908.72,-122 5795.28,-122 5795.28,-86 5908.72,-86 5908.72,-122"/>
<text text-anchor="middle" x="5852" y="-99.8" font-family="Times,serif" font-size="14.00">ChatsComponent</text>
</g>
<!-- ChatsComponent&#45;&gt;AppModule -->
<g id="edge9" class="edge">
<title>ChatsComponent&#45;&gt;AppModule</title>
<path fill="none" stroke="black" d="M5852,-122.13C5852,-142.57 5852,-173 5852,-173 5852,-173 3935.04,-173 3935.04,-173"/>
<polygon fill="black" stroke="black" points="3935.04,-169.5 3925.04,-173 3935.04,-176.5 3935.04,-169.5"/>
</g>
<!-- DateAgoPipe -->
<g id="node10" class="node">
<title>DateAgoPipe</title>
<polygon fill="#ffffb3" stroke="black" points="5777.92,-122 5686.08,-122 5686.08,-86 5777.92,-86 5777.92,-122"/>
<text text-anchor="middle" x="5732" y="-99.8" font-family="Times,serif" font-size="14.00">DateAgoPipe</text>
</g>
<!-- DateAgoPipe&#45;&gt;AppModule -->
<g id="edge10" class="edge">
<title>DateAgoPipe&#45;&gt;AppModule</title>
<path fill="none" stroke="black" d="M5732,-122.31C5732,-142.15 5732,-171 5732,-171 5732,-171 3935.09,-171 3935.09,-171"/>
<polygon fill="black" stroke="black" points="3935.09,-167.5 3925.09,-171 3935.09,-174.5 3935.09,-167.5"/>
</g>
<!-- DepositComponent -->
<g id="node11" class="node">
<title>DepositComponent</title>
<polygon fill="#ffffb3" stroke="black" points="5668.38,-122 5543.62,-122 5543.62,-86 5668.38,-86 5668.38,-122"/>
<text text-anchor="middle" x="5606" y="-99.8" font-family="Times,serif" font-size="14.00">DepositComponent</text>
</g>
<!-- DepositComponent&#45;&gt;AppModule -->
<g id="edge11" class="edge">
<title>DepositComponent&#45;&gt;AppModule</title>
<path fill="none" stroke="black" d="M5606,-122.11C5606,-141.34 5606,-169 5606,-169 5606,-169 3934.74,-169 3934.74,-169"/>
<polygon fill="black" stroke="black" points="3934.74,-165.5 3924.74,-169 3934.74,-172.5 3934.74,-165.5"/>
</g>
<!-- DialogCoverComponent -->
<g id="node12" class="node">
<title>DialogCoverComponent</title>
<polygon fill="#ffffb3" stroke="black" points="5525.65,-122 5372.35,-122 5372.35,-86 5525.65,-86 5525.65,-122"/>
<text text-anchor="middle" x="5449" y="-99.8" font-family="Times,serif" font-size="14.00">DialogCoverComponent</text>
</g>
<!-- DialogCoverComponent&#45;&gt;AppModule -->
<g id="edge12" class="edge">
<title>DialogCoverComponent&#45;&gt;AppModule</title>
<path fill="none" stroke="black" d="M5449,-122.17C5449,-141.09 5449,-168 5449,-168 5449,-168 3934.89,-168 3934.89,-168"/>
<polygon fill="black" stroke="black" points="3934.89,-164.5 3924.89,-168 3934.89,-171.5 3934.89,-164.5"/>
</g>
<!-- DialogDeleteComponent -->
<g id="node13" class="node">
<title>DialogDeleteComponent</title>
<polygon fill="#ffffb3" stroke="black" points="5353.97,-122 5198.03,-122 5198.03,-86 5353.97,-86 5353.97,-122"/>
<text text-anchor="middle" x="5276" y="-99.8" font-family="Times,serif" font-size="14.00">DialogDeleteComponent</text>
</g>
<!-- DialogDeleteComponent&#45;&gt;AppModule -->
<g id="edge13" class="edge">
<title>DialogDeleteComponent&#45;&gt;AppModule</title>
<path fill="none" stroke="black" d="M5276,-122.27C5276,-140.56 5276,-166 5276,-166 5276,-166 3934.69,-166 3934.69,-166"/>
<polygon fill="black" stroke="black" points="3934.69,-162.5 3924.69,-166 3934.69,-169.5 3934.69,-162.5"/>
</g>
<!-- DialogImageComponent -->
<g id="node14" class="node">
<title>DialogImageComponent</title>
<polygon fill="#ffffb3" stroke="black" points="5180.42,-122 5025.58,-122 5025.58,-86 5180.42,-86 5180.42,-122"/>
<text text-anchor="middle" x="5103" y="-99.8" font-family="Times,serif" font-size="14.00">DialogImageComponent</text>
</g>
<!-- DialogImageComponent&#45;&gt;AppModule -->
<g id="edge14" class="edge">
<title>DialogImageComponent&#45;&gt;AppModule</title>
<path fill="none" stroke="black" d="M5103,-122.3C5103,-140.27 5103,-165 5103,-165 5103,-165 3935,-165 3935,-165"/>
<polygon fill="black" stroke="black" points="3935,-161.5 3925,-165 3935,-168.5 3935,-161.5"/>
</g>
<!-- DialogMajorComponent -->
<g id="node15" class="node">
<title>DialogMajorComponent</title>
<polygon fill="#ffffb3" stroke="black" points="5007.65,-122 4854.35,-122 4854.35,-86 5007.65,-86 5007.65,-122"/>
<text text-anchor="middle" x="4931" y="-99.8" font-family="Times,serif" font-size="14.00">DialogMajorComponent</text>
</g>
<!-- DialogMajorComponent&#45;&gt;AppModule -->
<g id="edge15" class="edge">
<title>DialogMajorComponent&#45;&gt;AppModule</title>
<path fill="none" stroke="black" d="M4931,-122.02C4931,-139.37 4931,-163 4931,-163 4931,-163 3934.73,-163 3934.73,-163"/>
<polygon fill="black" stroke="black" points="3934.73,-159.5 3924.73,-163 3934.73,-166.5 3934.73,-159.5"/>
</g>
<!-- DialogSolidComponent -->
<g id="node16" class="node">
<title>DialogSolidComponent</title>
<polygon fill="#ffffb3" stroke="black" points="4836.5,-122 4687.5,-122 4687.5,-86 4836.5,-86 4836.5,-122"/>
<text text-anchor="middle" x="4762" y="-99.8" font-family="Times,serif" font-size="14.00">DialogSolidComponent</text>
</g>
<!-- DialogSolidComponent&#45;&gt;AppModule -->
<g id="edge16" class="edge">
<title>DialogSolidComponent&#45;&gt;AppModule</title>
<path fill="none" stroke="black" d="M4762,-122.04C4762,-138.73 4762,-161 4762,-161 4762,-161 3934.8,-161 3934.8,-161"/>
<polygon fill="black" stroke="black" points="3934.8,-157.5 3924.8,-161 3934.8,-164.5 3934.8,-157.5"/>
</g>
<!-- EditAddComponent -->
<g id="node17" class="node">
<title>EditAddComponent</title>
<polygon fill="#ffffb3" stroke="black" points="4669.27,-122 4540.73,-122 4540.73,-86 4669.27,-86 4669.27,-122"/>
<text text-anchor="middle" x="4605" y="-99.8" font-family="Times,serif" font-size="14.00">EditAddComponent</text>
</g>
<!-- EditAddComponent&#45;&gt;AppModule -->
<g id="edge17" class="edge">
<title>EditAddComponent&#45;&gt;AppModule</title>
<path fill="none" stroke="black" d="M4605,-122.03C4605,-138.4 4605,-160 4605,-160 4605,-160 3934.67,-160 3934.67,-160"/>
<polygon fill="black" stroke="black" points="3934.67,-156.5 3924.67,-160 3934.67,-163.5 3934.67,-156.5"/>
</g>
<!-- FooterComponent -->
<g id="node18" class="node">
<title>FooterComponent</title>
<polygon fill="#ffffb3" stroke="black" points="4522.88,-122 4405.12,-122 4405.12,-86 4522.88,-86 4522.88,-122"/>
<text text-anchor="middle" x="4464" y="-99.8" font-family="Times,serif" font-size="14.00">FooterComponent</text>
</g>
<!-- FooterComponent&#45;&gt;AppModule -->
<g id="edge18" class="edge">
<title>FooterComponent&#45;&gt;AppModule</title>
<path fill="none" stroke="black" d="M4464,-122.28C4464,-137.95 4464,-158 4464,-158 4464,-158 3934.78,-158 3934.78,-158"/>
<polygon fill="black" stroke="black" points="3934.78,-154.5 3924.78,-158 3934.78,-161.5 3934.78,-154.5"/>
</g>
<!-- HeaderComponent -->
<g id="node19" class="node">
<title>HeaderComponent</title>
<polygon fill="#ffffb3" stroke="black" points="4386.74,-122 4265.26,-122 4265.26,-86 4386.74,-86 4386.74,-122"/>
<text text-anchor="middle" x="4326" y="-99.8" font-family="Times,serif" font-size="14.00">HeaderComponent</text>
</g>
<!-- HeaderComponent&#45;&gt;AppModule -->
<g id="edge19" class="edge">
<title>HeaderComponent&#45;&gt;AppModule</title>
<path fill="none" stroke="black" d="M4326,-122.19C4326,-137.18 4326,-156 4326,-156 4326,-156 3934.68,-156 3934.68,-156"/>
<polygon fill="black" stroke="black" points="3934.68,-152.5 3924.68,-156 3934.68,-159.5 3934.68,-152.5"/>
</g>
<!-- HomeComponent -->
<g id="node20" class="node">
<title>HomeComponent</title>
<polygon fill="#ffffb3" stroke="black" points="4246.55,-122 4131.45,-122 4131.45,-86 4246.55,-86 4246.55,-122"/>
<text text-anchor="middle" x="4189" y="-99.8" font-family="Times,serif" font-size="14.00">HomeComponent</text>
</g>
<!-- HomeComponent&#45;&gt;AppModule -->
<g id="edge20" class="edge">
<title>HomeComponent&#45;&gt;AppModule</title>
<path fill="none" stroke="black" d="M4189,-122.12C4189,-136.78 4189,-155 4189,-155 4189,-155 3934.91,-155 3934.91,-155"/>
<polygon fill="black" stroke="black" points="3934.91,-151.5 3924.91,-155 3934.91,-158.5 3934.91,-151.5"/>
</g>
<!-- InputPipe -->
<g id="node21" class="node">
<title>InputPipe</title>
<polygon fill="#ffffb3" stroke="black" points="4113.44,-122 4042.56,-122 4042.56,-86 4113.44,-86 4113.44,-122"/>
<text text-anchor="middle" x="4078" y="-99.8" font-family="Times,serif" font-size="14.00">InputPipe</text>
</g>
<!-- InputPipe&#45;&gt;AppModule -->
<g id="edge21" class="edge">
<title>InputPipe&#45;&gt;AppModule</title>
<path fill="none" stroke="black" d="M4078,-122.25C4078,-136.18 4078,-153 4078,-153 4078,-153 3934.83,-153 3934.83,-153"/>
<polygon fill="black" stroke="black" points="3934.83,-149.5 3924.83,-153 3934.83,-156.5 3934.83,-149.5"/>
</g>
<!-- NewAddComponent -->
<g id="node22" class="node">
<title>NewAddComponent</title>
<polygon fill="#ffffb3" stroke="black" points="4024.87,-122 3893.13,-122 3893.13,-86 4024.87,-86 4024.87,-122"/>
<text text-anchor="middle" x="3959" y="-99.8" font-family="Times,serif" font-size="14.00">NewAddComponent</text>
</g>
<!-- NewAddComponent&#45;&gt;AppModule -->
<g id="edge22" class="edge">
<title>NewAddComponent&#45;&gt;AppModule</title>
<path fill="none" stroke="black" d="M3908.95,-122.11C3908.95,-122.11 3908.95,-140.99 3908.95,-140.99"/>
<polygon fill="black" stroke="black" points="3905.45,-140.99 3908.95,-150.99 3912.45,-140.99 3905.45,-140.99"/>
</g>
<!-- NotfoundComponent -->
<g id="node23" class="node">
<title>NotfoundComponent</title>
<polygon fill="#ffffb3" stroke="black" points="3875.49,-122 3740.51,-122 3740.51,-86 3875.49,-86 3875.49,-122"/>
<text text-anchor="middle" x="3808" y="-99.8" font-family="Times,serif" font-size="14.00">NotfoundComponent</text>
</g>
<!-- NotfoundComponent&#45;&gt;AppModule -->
<g id="edge23" class="edge">
<title>NotfoundComponent&#45;&gt;AppModule</title>
<path fill="none" stroke="black" d="M3858.33,-122.11C3858.33,-122.11 3858.33,-140.99 3858.33,-140.99"/>
<polygon fill="black" stroke="black" points="3854.83,-140.99 3858.33,-150.99 3861.83,-140.99 3854.83,-140.99"/>
</g>
<!-- NotificationsComponent -->
<g id="node24" class="node">
<title>NotificationsComponent</title>
<polygon fill="#ffffb3" stroke="black" points="3722.43,-122 3567.57,-122 3567.57,-86 3722.43,-86 3722.43,-122"/>
<text text-anchor="middle" x="3645" y="-99.8" font-family="Times,serif" font-size="14.00">NotificationsComponent</text>
</g>
<!-- NotificationsComponent&#45;&gt;AppModule -->
<g id="edge24" class="edge">
<title>NotificationsComponent&#45;&gt;AppModule</title>
<path fill="none" stroke="black" d="M3645,-122.25C3645,-136.18 3645,-153 3645,-153 3645,-153 3831.27,-153 3831.27,-153"/>
<polygon fill="black" stroke="black" points="3831.27,-156.5 3841.27,-153 3831.27,-149.5 3831.27,-156.5"/>
</g>
<!-- PaymentDetailsDialogComponent -->
<g id="node25" class="node">
<title>PaymentDetailsDialogComponent</title>
<polygon fill="#ffffb3" stroke="black" points="3550.08,-122 3341.92,-122 3341.92,-86 3550.08,-86 3550.08,-122"/>
<text text-anchor="middle" x="3446" y="-99.8" font-family="Times,serif" font-size="14.00">PaymentDetailsDialogComponent</text>
</g>
<!-- PaymentDetailsDialogComponent&#45;&gt;AppModule -->
<g id="edge25" class="edge">
<title>PaymentDetailsDialogComponent&#45;&gt;AppModule</title>
<path fill="none" stroke="black" d="M3446,-122.12C3446,-136.78 3446,-155 3446,-155 3446,-155 3831.1,-155 3831.1,-155"/>
<polygon fill="black" stroke="black" points="3831.1,-158.5 3841.1,-155 3831.1,-151.5 3831.1,-158.5"/>
</g>
<!-- ProductDetailsComponent -->
<g id="node26" class="node">
<title>ProductDetailsComponent</title>
<polygon fill="#ffffb3" stroke="black" points="3324.03,-122 3159.97,-122 3159.97,-86 3324.03,-86 3324.03,-122"/>
<text text-anchor="middle" x="3242" y="-99.8" font-family="Times,serif" font-size="14.00">ProductDetailsComponent</text>
</g>
<!-- ProductDetailsComponent&#45;&gt;AppModule -->
<g id="edge26" class="edge">
<title>ProductDetailsComponent&#45;&gt;AppModule</title>
<path fill="none" stroke="black" d="M3242,-122.19C3242,-137.18 3242,-156 3242,-156 3242,-156 3830.94,-156 3830.94,-156"/>
<polygon fill="black" stroke="black" points="3830.94,-159.5 3840.94,-156 3830.94,-152.5 3830.94,-159.5"/>
</g>
<!-- ProductsComponent -->
<g id="node27" class="node">
<title>ProductsComponent</title>
<polygon fill="#ffffb3" stroke="black" points="3142.33,-122 3011.67,-122 3011.67,-86 3142.33,-86 3142.33,-122"/>
<text text-anchor="middle" x="3077" y="-99.8" font-family="Times,serif" font-size="14.00">ProductsComponent</text>
</g>
<!-- ProductsComponent&#45;&gt;AppModule -->
<g id="edge27" class="edge">
<title>ProductsComponent&#45;&gt;AppModule</title>
<path fill="none" stroke="black" d="M3077,-122.28C3077,-137.95 3077,-158 3077,-158 3077,-158 3831.08,-158 3831.08,-158"/>
<polygon fill="black" stroke="black" points="3831.08,-161.5 3841.08,-158 3831.08,-154.5 3831.08,-161.5"/>
</g>
<!-- ProfileComponent -->
<g id="node28" class="node">
<title>ProfileComponent</title>
<polygon fill="#ffffb3" stroke="black" points="2993.93,-122 2874.07,-122 2874.07,-86 2993.93,-86 2993.93,-122"/>
<text text-anchor="middle" x="2934" y="-99.8" font-family="Times,serif" font-size="14.00">ProfileComponent</text>
</g>
<!-- ProfileComponent&#45;&gt;AppModule -->
<g id="edge28" class="edge">
<title>ProfileComponent&#45;&gt;AppModule</title>
<path fill="none" stroke="black" d="M2934,-122.03C2934,-138.4 2934,-160 2934,-160 2934,-160 3831.31,-160 3831.31,-160"/>
<polygon fill="black" stroke="black" points="3831.31,-163.5 3841.31,-160 3831.31,-156.5 3831.31,-163.5"/>
</g>
<!-- RegisterComponent -->
<g id="node29" class="node">
<title>RegisterComponent</title>
<polygon fill="#ffffb3" stroke="black" points="2855.98,-122 2728.02,-122 2728.02,-86 2855.98,-86 2855.98,-122"/>
<text text-anchor="middle" x="2792" y="-99.8" font-family="Times,serif" font-size="14.00">RegisterComponent</text>
</g>
<!-- RegisterComponent&#45;&gt;AppModule -->
<g id="edge29" class="edge">
<title>RegisterComponent&#45;&gt;AppModule</title>
<path fill="none" stroke="black" d="M2792,-122.04C2792,-138.73 2792,-161 2792,-161 2792,-161 3831.23,-161 3831.23,-161"/>
<polygon fill="black" stroke="black" points="3831.23,-164.5 3841.23,-161 3831.23,-157.5 3831.23,-164.5"/>
</g>
<!-- ResetPassModalComponent -->
<g id="node30" class="node">
<title>ResetPassModalComponent</title>
<polygon fill="#ffffb3" stroke="black" points="2709.87,-122 2536.13,-122 2536.13,-86 2709.87,-86 2709.87,-122"/>
<text text-anchor="middle" x="2623" y="-99.8" font-family="Times,serif" font-size="14.00">ResetPassModalComponent</text>
</g>
<!-- ResetPassModalComponent&#45;&gt;AppModule -->
<g id="edge30" class="edge">
<title>ResetPassModalComponent&#45;&gt;AppModule</title>
<path fill="none" stroke="black" d="M2623,-122.02C2623,-139.37 2623,-163 2623,-163 2623,-163 3831.08,-163 3831.08,-163"/>
<polygon fill="black" stroke="black" points="3831.08,-166.5 3841.08,-163 3831.08,-159.5 3831.08,-166.5"/>
</g>
<!-- ResponseModalComponent -->
<g id="node31" class="node">
<title>ResponseModalComponent</title>
<polygon fill="#ffffb3" stroke="black" points="2517.54,-122 2346.46,-122 2346.46,-86 2517.54,-86 2517.54,-122"/>
<text text-anchor="middle" x="2432" y="-99.8" font-family="Times,serif" font-size="14.00">ResponseModalComponent</text>
</g>
<!-- ResponseModalComponent&#45;&gt;AppModule -->
<g id="edge31" class="edge">
<title>ResponseModalComponent&#45;&gt;AppModule</title>
<path fill="none" stroke="black" d="M2432,-122.3C2432,-140.27 2432,-165 2432,-165 2432,-165 3831.14,-165 3831.14,-165"/>
<polygon fill="black" stroke="black" points="3831.14,-168.5 3841.14,-165 3831.14,-161.5 3831.14,-168.5"/>
</g>
<!-- ResponseModalErrorComponent -->
<g id="node32" class="node">
<title>ResponseModalErrorComponent</title>
<polygon fill="#ffffb3" stroke="black" points="2328.57,-122 2127.43,-122 2127.43,-86 2328.57,-86 2328.57,-122"/>
<text text-anchor="middle" x="2228" y="-99.8" font-family="Times,serif" font-size="14.00">ResponseModalErrorComponent</text>
</g>
<!-- ResponseModalErrorComponent&#45;&gt;AppModule -->
<g id="edge32" class="edge">
<title>ResponseModalErrorComponent&#45;&gt;AppModule</title>
<path fill="none" stroke="black" d="M2228,-122.27C2228,-140.56 2228,-166 2228,-166 2228,-166 3831.26,-166 3831.26,-166"/>
<polygon fill="black" stroke="black" points="3831.26,-169.5 3841.26,-166 3831.26,-162.5 3831.26,-169.5"/>
</g>
<!-- SearchComponent -->
<g id="node33" class="node">
<title>SearchComponent</title>
<polygon fill="#ffffb3" stroke="black" points="2109.92,-122 1990.08,-122 1990.08,-86 2109.92,-86 2109.92,-122"/>
<text text-anchor="middle" x="2050" y="-99.8" font-family="Times,serif" font-size="14.00">SearchComponent</text>
</g>
<!-- SearchComponent&#45;&gt;AppModule -->
<g id="edge33" class="edge">
<title>SearchComponent&#45;&gt;AppModule</title>
<path fill="none" stroke="black" d="M2050,-122.17C2050,-141.09 2050,-168 2050,-168 2050,-168 3831.27,-168 3831.27,-168"/>
<polygon fill="black" stroke="black" points="3831.27,-171.5 3841.27,-168 3831.27,-164.5 3831.27,-171.5"/>
</g>
<!-- SearchResultComponent -->
<g id="node34" class="node">
<title>SearchResultComponent</title>
<polygon fill="#ffffb3" stroke="black" points="1972.7,-122 1817.3,-122 1817.3,-86 1972.7,-86 1972.7,-122"/>
<text text-anchor="middle" x="1895" y="-99.8" font-family="Times,serif" font-size="14.00">SearchResultComponent</text>
</g>
<!-- SearchResultComponent&#45;&gt;AppModule -->
<g id="edge34" class="edge">
<title>SearchResultComponent&#45;&gt;AppModule</title>
<path fill="none" stroke="black" d="M1895,-122.11C1895,-141.34 1895,-169 1895,-169 1895,-169 3831.02,-169 3831.02,-169"/>
<polygon fill="black" stroke="black" points="3831.02,-172.5 3841.02,-169 3831.02,-165.5 3831.02,-172.5"/>
</g>
<!-- SellerProfileComponent -->
<g id="node35" class="node">
<title>SellerProfileComponent</title>
<polygon fill="#ffffb3" stroke="black" points="1799.09,-122 1646.91,-122 1646.91,-86 1799.09,-86 1799.09,-122"/>
<text text-anchor="middle" x="1723" y="-99.8" font-family="Times,serif" font-size="14.00">SellerProfileComponent</text>
</g>
<!-- SellerProfileComponent&#45;&gt;AppModule -->
<g id="edge35" class="edge">
<title>SellerProfileComponent&#45;&gt;AppModule</title>
<path fill="none" stroke="black" d="M1723,-122.31C1723,-142.15 1723,-171 1723,-171 1723,-171 3831.3,-171 3831.3,-171"/>
<polygon fill="black" stroke="black" points="3831.3,-174.5 3841.3,-171 3831.3,-167.5 3831.3,-174.5"/>
</g>
<!-- SidenavComponent -->
<g id="node36" class="node">
<title>SidenavComponent</title>
<polygon fill="#ffffb3" stroke="black" points="1629.44,-122 1502.56,-122 1502.56,-86 1629.44,-86 1629.44,-122"/>
<text text-anchor="middle" x="1566" y="-99.8" font-family="Times,serif" font-size="14.00">SidenavComponent</text>
</g>
<!-- SidenavComponent&#45;&gt;AppModule -->
<g id="edge36" class="edge">
<title>SidenavComponent&#45;&gt;AppModule</title>
<path fill="none" stroke="black" d="M1566,-122.13C1566,-142.57 1566,-173 1566,-173 1566,-173 3831.3,-173 3831.3,-173"/>
<polygon fill="black" stroke="black" points="3831.3,-176.5 3841.3,-173 3831.3,-169.5 3831.3,-176.5"/>
</g>
<!-- SingleChatComponent -->
<g id="node37" class="node">
<title>SingleChatComponent</title>
<polygon fill="#ffffb3" stroke="black" points="1484.55,-122 1341.45,-122 1341.45,-86 1484.55,-86 1484.55,-122"/>
<text text-anchor="middle" x="1413" y="-99.8" font-family="Times,serif" font-size="14.00">SingleChatComponent</text>
</g>
<!-- SingleChatComponent&#45;&gt;AppModule -->
<g id="edge37" class="edge">
<title>SingleChatComponent&#45;&gt;AppModule</title>
<path fill="none" stroke="black" d="M1413,-122.03C1413,-142.77 1413,-174 1413,-174 1413,-174 3831.16,-174 3831.16,-174"/>
<polygon fill="black" stroke="black" points="3831.16,-177.5 3841.16,-174 3831.16,-170.5 3831.16,-177.5"/>
</g>
<!-- SubscriptionsComponent -->
<g id="node38" class="node">
<title>SubscriptionsComponent</title>
<polygon fill="#ffffb3" stroke="black" points="1322.55,-122 1165.45,-122 1165.45,-86 1322.55,-86 1322.55,-122"/>
<text text-anchor="middle" x="1244" y="-99.8" font-family="Times,serif" font-size="14.00">SubscriptionsComponent</text>
</g>
<!-- SubscriptionsComponent&#45;&gt;AppModule -->
<g id="edge38" class="edge">
<title>SubscriptionsComponent&#45;&gt;AppModule</title>
<path fill="none" stroke="black" d="M1244,-122.17C1244,-143.5 1244,-176 1244,-176 1244,-176 3831.28,-176 3831.28,-176"/>
<polygon fill="black" stroke="black" points="3831.28,-179.5 3841.28,-176 3831.28,-172.5 3831.28,-179.5"/>
</g>
<!-- TermsConditionsComponent -->
<g id="node39" class="node">
<title>TermsConditionsComponent</title>
<polygon fill="#ffffb3" stroke="black" points="1147.05,-122 968.95,-122 968.95,-86 1147.05,-86 1147.05,-122"/>
<text text-anchor="middle" x="1058" y="-99.8" font-family="Times,serif" font-size="14.00">TermsConditionsComponent</text>
</g>
<!-- TermsConditionsComponent&#45;&gt;AppModule -->
<g id="edge39" class="edge">
<title>TermsConditionsComponent&#45;&gt;AppModule</title>
<path fill="none" stroke="black" d="M1058,-122.29C1058,-144.21 1058,-178 1058,-178 1058,-178 3831.15,-178 3831.15,-178"/>
<polygon fill="black" stroke="black" points="3831.15,-181.5 3841.15,-178 3831.15,-174.5 3831.15,-181.5"/>
</g>
<!-- TestimonialComponent -->
<g id="node40" class="node">
<title>TestimonialComponent</title>
<polygon fill="#ffffb3" stroke="black" points="951.21,-122 802.79,-122 802.79,-86 951.21,-86 951.21,-122"/>
<text text-anchor="middle" x="877" y="-99.8" font-family="Times,serif" font-size="14.00">TestimonialComponent</text>
</g>
<!-- TestimonialComponent&#45;&gt;AppModule -->
<g id="edge40" class="edge">
<title>TestimonialComponent&#45;&gt;AppModule</title>
<path fill="none" stroke="black" d="M877,-122.16C877,-144.35 877,-179 877,-179 877,-179 3831.08,-179 3831.08,-179"/>
<polygon fill="black" stroke="black" points="3831.08,-182.5 3841.08,-179 3831.08,-175.5 3831.08,-182.5"/>
</g>
<!-- AppComponent  -->
<g id="node43" class="node">
<title>AppComponent </title>
<polygon fill="#80b1d3" stroke="black" points="3937.44,-252 3828.56,-252 3828.56,-216 3937.44,-216 3937.44,-252"/>
<text text-anchor="middle" x="3883" y="-229.8" font-family="Times,serif" font-size="14.00">AppComponent </text>
</g>
<!-- AppModule&#45;&gt;AppComponent  -->
<g id="edge42" class="edge">
<title>AppModule&#45;&gt;AppComponent </title>
<path fill="none" stroke="black" stroke-dasharray="1,5" d="M3883,-187.11C3883,-187.11 3883,-205.99 3883,-205.99"/>
<polygon fill="black" stroke="black" points="3879.5,-205.99 3883,-215.99 3886.5,-205.99 3879.5,-205.99"/>
</g>
<!-- AppRoutingModule -->
<g id="node42" class="node">
<title>AppRoutingModule</title>
<polygon fill="#8dd3c7" stroke="black" points="152.27,-122 149.27,-126 128.27,-126 125.27,-122 23.73,-122 23.73,-86 152.27,-86 152.27,-122"/>
<text text-anchor="middle" x="88" y="-99.8" font-family="Times,serif" font-size="14.00">AppRoutingModule</text>
</g>
<!-- AppRoutingModule&#45;&gt;AppModule -->
<g id="edge41" class="edge">
<title>AppRoutingModule&#45;&gt;AppModule</title>
<path fill="none" stroke="black" d="M88,-122.2C88,-146.36 88,-186 88,-186 88,-186 3831.03,-186 3831.03,-186"/>
<polygon fill="black" stroke="black" points="3831.03,-189.5 3841.03,-186 3831.03,-182.5 3831.03,-189.5"/>
</g>
<!-- HttpErrorInterceptor -->
<g id="node44" class="node">
<title>HttpErrorInterceptor</title>
<ellipse fill="#fdb462" stroke="black" cx="688" cy="-104" rx="90.87" ry="18"/>
<text text-anchor="middle" x="688" y="-99.8" font-family="Times,serif" font-size="14.00">HttpErrorInterceptor</text>
</g>
<!-- HttpErrorInterceptor&#45;&gt;AppModule -->
<g id="edge43" class="edge">
<title>HttpErrorInterceptor&#45;&gt;AppModule</title>
<path fill="none" stroke="black" d="M688,-122.25C688,-145.02 688,-181 688,-181 688,-181 3831.14,-181 3831.14,-181"/>
<polygon fill="black" stroke="black" points="3831.14,-184.5 3841.14,-181 3831.14,-177.5 3831.14,-184.5"/>
</g>
<!-- HttpHeadersInterceptor -->
<g id="node45" class="node">
<title>HttpHeadersInterceptor</title>
<ellipse fill="#fdb462" stroke="black" cx="477" cy="-104" rx="102.38" ry="18"/>
<text text-anchor="middle" x="477" y="-99.8" font-family="Times,serif" font-size="14.00">HttpHeadersInterceptor</text>
</g>
<!-- HttpHeadersInterceptor&#45;&gt;AppModule -->
<g id="edge44" class="edge">
<title>HttpHeadersInterceptor&#45;&gt;AppModule</title>
<path fill="none" stroke="black" d="M477,-122.32C477,-145.66 477,-183 477,-183 477,-183 3831.16,-183 3831.16,-183"/>
<polygon fill="black" stroke="black" points="3831.16,-186.5 3841.16,-183 3831.16,-179.5 3831.16,-186.5"/>
</g>
<!-- NotificationsService -->
<g id="node46" class="node">
<title>NotificationsService</title>
<ellipse fill="#fdb462" stroke="black" cx="266" cy="-104" rx="90.32" ry="18"/>
<text text-anchor="middle" x="266" y="-99.8" font-family="Times,serif" font-size="14.00">NotificationsService</text>
</g>
<!-- NotificationsService&#45;&gt;AppModule -->
<g id="edge45" class="edge">
<title>NotificationsService&#45;&gt;AppModule</title>
<path fill="none" stroke="black" d="M266,-122.15C266,-145.76 266,-184 266,-184 266,-184 3831.13,-184 3831.13,-184"/>
<polygon fill="black" stroke="black" points="3831.13,-187.5 3841.13,-184 3831.13,-180.5 3831.13,-187.5"/>
</g>
</g>
</svg>
